<?xml version="1.0" encoding="iso-8859-1"?>
<!-- Uploaded to: SVG Repo, www.svgrepo.com, Generator: SVG Repo Mixer Tools -->
<svg version="1.1" id="Layer_1" xmlns="http://www.w3.org/2000/svg" xmlns:xlink="http://www.w3.org/1999/xlink" 
	 viewBox="0 0 512 512" xml:space="preserve">
<path style="fill:#707487;" d="M485.083,402.613H26.917c-10.122,0-18.327-8.205-18.327-18.327V54.407
	c0-10.122,8.205-18.327,18.327-18.327h458.166c10.122,0,18.327,8.205,18.327,18.327v329.879
	C503.409,394.408,495.205,402.613,485.083,402.613z"/>
<path style="fill:#5B5D6E;" d="M8.591,347.633v36.653c0,10.121,8.206,18.327,18.327,18.327h182.248l-8.145,73.306h109.96
	l-8.145-73.306h182.248c10.121,0,18.327-8.206,18.327-18.327v-36.653H8.591z"/>
<rect x="45.244" y="72.734" style="fill:#FFFFFF;" width="421.512" height="284.063"/>
<polygon style="fill:#F1F3C5;" points="411.776,136.877 307.925,246.837 307.925,356.796 411.776,356.796 "/>
<polygon style="fill:#FFF3C9;" points="204.075,191.857 307.925,246.837 307.925,356.796 204.075,356.796 "/>
<polygon style="fill:#FFDED3;" points="204.075,191.857 100.224,292.653 100.224,356.796 204.075,356.796 "/>
<circle style="fill:#FF507D;" cx="100.224" cy="292.653" r="18.327"/>
<circle style="fill:#B4E66E;" cx="411.776" cy="136.877" r="18.327"/>
<circle style="fill:#FFDC64;" cx="307.922" cy="246.837" r="18.327"/>
<circle style="fill:#FF8C66;" cx="204.078" cy="191.857" r="18.327"/>
<polygon style="fill:#464655;" points="302.835,402.613 209.165,402.613 206.112,430.103 305.89,430.103 "/>
<path d="M485.083,27.49H26.917C12.075,27.49,0,39.565,0,54.407v329.879c0,14.842,12.075,26.917,26.917,26.917h173.535l-7.016,56.125
	h-29.069c-4.744,0-8.591,3.846-8.591,8.591s3.846,8.591,8.591,8.591h183.266c4.744,0,8.591-3.846,8.591-8.591
	s-3.846-8.591-8.591-8.591h-29.069l-7.016-56.125h173.535c14.842,0,26.917-12.075,26.917-26.917V54.407
	C512,39.565,499.925,27.49,485.083,27.49z M301.248,467.329H210.75l7.016-56.125h76.467L301.248,467.329z M494.819,384.286
	c0,5.369-4.367,9.736-9.736,9.736H26.917c-5.369,0-9.736-4.367-9.736-9.736V54.407c0-5.369,4.367-9.736,9.736-9.736h458.166
	c5.369,0,9.736,4.367,9.736,9.736V384.286z"/>
<path d="M72.737,348.206H53.834V81.324h348.779c4.744,0,8.591-3.846,8.591-8.591s-3.846-8.591-8.591-8.591H45.244
	c-4.744,0-8.591,3.846-8.591,8.591v284.063c0,4.744,3.846,8.591,8.591,8.591h27.493c4.744,0,8.591-3.846,8.591-8.591
	S77.483,348.206,72.737,348.206z"/>
<path d="M466.756,64.143h-27.49c-4.744,0-8.591,3.846-8.591,8.591s3.846,8.591,8.591,8.591h18.899v266.881h-348.78
	c-4.744,0-8.591,3.846-8.591,8.591s3.846,8.591,8.591,8.591h357.37c4.744,0,8.591-3.846,8.591-8.591V72.734
	C475.347,67.989,471.5,64.143,466.756,64.143z"/>
<path d="M127.141,292.653c0-4.151-0.946-8.086-2.631-11.6l67.251-65.274c3.693,1.908,7.878,2.994,12.313,2.994
	c7.165,0,13.679-2.819,18.506-7.399l58.783,31.12c-0.23,1.415-0.355,2.864-0.355,4.342c0,14.842,12.075,26.917,26.917,26.917
	s26.917-12.075,26.917-26.917c0-4.567-1.147-8.87-3.162-12.641l68.831-72.88c3.429,1.586,7.244,2.479,11.264,2.479
	c14.842,0,26.917-12.075,26.917-26.917s-12.074-26.917-26.916-26.917c-14.842,0-26.917,12.075-26.917,26.917
	c0,4.567,1.147,8.869,3.161,12.641l-68.831,72.88c-3.429-1.586-7.244-2.479-11.264-2.479c-7.165,0-13.678,2.819-18.506,7.399
	l-58.783-31.12c0.23-1.415,0.355-2.864,0.355-4.342c0-14.842-12.075-26.917-26.917-26.917c-14.842,0-26.917,12.075-26.917,26.917
	c0,4.151,0.946,8.085,2.631,11.6l-67.251,65.274c-3.693-1.908-7.877-2.994-12.313-2.994c-14.842,0-26.917,12.075-26.917,26.917
	c0,14.842,12.075,26.917,26.917,26.917S127.141,307.496,127.141,292.653z M411.776,127.141c5.369,0,9.736,4.367,9.736,9.736
	c0,5.369-4.367,9.736-9.736,9.736c-5.369,0-9.736-4.367-9.736-9.736C402.04,131.508,406.408,127.141,411.776,127.141z
	 M307.925,237.101c5.369,0,9.736,4.367,9.736,9.736c0,5.369-4.367,9.736-9.736,9.736c-5.369,0-9.736-4.367-9.736-9.736
	C298.189,241.468,302.556,237.101,307.925,237.101z M204.075,182.121c5.369,0,9.736,4.367,9.736,9.736
	c0,5.369-4.367,9.736-9.736,9.736c-5.369,0-9.736-4.367-9.736-9.736C194.339,186.488,198.705,182.121,204.075,182.121z
	 M100.224,302.389c-5.369,0-9.736-4.367-9.736-9.736c0-5.369,4.367-9.736,9.736-9.736c5.369,0,9.736,4.367,9.736,9.736
	S105.592,302.389,100.224,302.389z"/>
<path d="M403.186,191.857v128.286c0,4.744,3.846,8.591,8.591,8.591c4.744,0,8.591-3.846,8.591-8.591V191.857
	c0-4.744-3.846-8.591-8.591-8.591C407.032,183.266,403.186,187.113,403.186,191.857z"/>
<path d="M195.484,246.837v73.307c0,4.744,3.846,8.591,8.591,8.591c4.744,0,8.591-3.846,8.591-8.591v-73.307
	c0-4.744-3.846-8.591-8.591-8.591C199.331,238.246,195.484,242.092,195.484,246.837z"/>
<path d="M299.334,301.817v18.327c0,4.744,3.846,8.591,8.591,8.591c4.744,0,8.591-3.846,8.591-8.591v-18.327
	c0-4.744-3.846-8.591-8.591-8.591C303.181,293.226,299.334,297.072,299.334,301.817z"/>
</svg>